<?xml version="1.0" encoding="UTF-8" standalone="no"?>
<!-- Created for MapSVG plugin: http://mapsvg.com -->
<svg
   xmlns:mapsvg="http://mapsvg.com"
   xmlns:dc="http://purl.org/dc/elements/1.1/"
   xmlns:rdf="http://www.w3.org/1999/02/22-rdf-syntax-ns#"
   xmlns:svg="http://www.w3.org/2000/svg"
   xmlns="http://www.w3.org/2000/svg"
   mapsvg:geoViewBox="95.220250 7.356505 141.009728 -10.946766"
   width="792.54596"
   height="316.66394">
  <path
     d="m 506.31571,285.45789 0.03,0.31 -0.19,0.24 -0.04,0.59 -0.2,0.43 0.12,0.56 -0.3,0.15 -0.14,0.43 -0.49,0.07 -0.31,0.4 -0.17,-0.02 -0.11,0.3 0.12,0.25 -0.55,0.68 0.22,0.45 -0.23,0.5 -1.21,0.28 0.14,-0.86 -0.25,-0.61 -0.83,-0.81 -0.21,-0.04 -0.7,0.42 -0.2,0.48 -0.41,0.11 -0.26,-0.32 -0.46,0.02 -0.88,-1.19 0,0 1.84,-0.67 0.56,-0.7 1.86,-0.7 3.25,-0.75 z m 48.01,-12.17 -2.76,2.21 -1.31,1.34 -3.94,1.3 -2.31,0.34 -1.29,0.62 -0.72,0.7 -0.34,0.84 -0.8,0.89 -2.6,0.43 -2.96,0.26 -3.63,2.38 -1.7,0.07 -1.08,0.28 -6.72,2.18 -1.12,0.66 -2.05,1.97 -1.42,0.21 -0.69,0.46 0,0 -0.16,-1.19 -0.48,-0.56 -0.04,-0.58 -0.97,-0.67 -0.26,-1.08 0.05,-0.39 0.28,-0.57 1.04,-0.02 0.72,0.56 0.03,-0.14 0.64,-0.38 0.69,-0.08 -0.15,-0.75 0.26,-0.89 -0.02,-0.85 -0.61,-0.51 -0.26,-0.05 -0.41,-0.45 -0.28,0.63 -0.32,0.34 -0.61,0.17 -0.67,0.52 -0.45,0.01 -0.51,-0.25 -0.23,-0.36 0.01,-0.52 0.3,-0.63 -0.2,-0.08 0,0 0.55,-0.4 2.12,-3.05 0.28,-1.37 0.62,-0.8 1.46,-0.43 3.37,-0.66 4.92,-0.72 2.35,-0.85 1.62,0.11 0.84,0.22 0.61,0.34 0.95,0.07 2.69,-0.44 0.93,-0.38 1.23,-0.85 0.93,-0.06 1.61,0.48 0.64,0.54 0.39,0.04 3.6,-1.08 2.2,-1.11 1.84,-0.62 3.35,0.15 1.81,1.11 0.02,0.64 -0.88,0.75 z"
     title="Timor-Leste"
     id="TL" />
  <path
     d="m 384.45571,12.917885 -0.36,0.04 -1.07,-0.26 -0.27,-0.31 0.13,-0.24 0.97,-0.08 0.68,-0.27 0.12,-0.23 -0.1,-0.21 -0.61,-0.08 -0.06,-0.24 0.18,-0.18 0.99,-0.25 0.42,0.3 0.4,0.67 -0.04,0.47 -0.21,0.26 -1.17,0.61 z m -11.24,0.77 0.28,0.13 0.42,-0.06 0.66,-0.28 3.21,-3.9699996 0.11,-0.31 -0.43,-1.17 0.02,-0.42 0.65,-0.77 0.36,-0.24 0.96,-0.15 0.57,0.19 1.23,0.78 0.06,0.98 -0.13,0.46 0.14,1.6199996 0.6,2.21 3.09,1.74 1.59,0.03 1.55,0.4 0.49,0.4 0.83,1.18 0.26,0.63 -0.29,2.25 -0.22,0.13 -0.66,-0.1 -0.51,0.2 -0.51,0.4 -0.21,0.48 0.03,0.25 1.05,1.54 0.21,1.84 -0.78,0.73 -2.2,0.76 4.83,-0.33 1.81,-0.65 1.73,-1.79 0.35,-0.09 0.72,0.72 1.32,2.69 -0.77,0.93 -0.69,0.12 -1.89,-0.18 -0.4,0.28 0.17,0.74 0.65,1.21 2.94,-0.08 0.53,-1.68 0.35,-0.29 1.42,-0.41 1.99,0.35 1.75,0.85 1.8,1.2 1.21,0.88 0.75,0.8 4.2,2.79 2.34,0.44 0.56,-0.15 0.5,-0.39 1.01,-0.13 0.85,0.69 0.64,1.01 -0.06,2.09 -0.84,1.29 -0.91,0.63 -1.75,0.73 -2.71,0.73 -3.66,1.46 -2.63,-0.27 -1.78,-0.7 -0.58,-0.54 -1.02,-0.09 -2.54,1.28 -1.16,1.27 -0.14,0.6 2.59,2.98 2.33,1.51 0.22,-0.31 0.18,-0.03 0.77,0.35 0.03,0.48 -0.34,0.46 0.73,0.65 0.6,-0.43 0.88,0.07 0.87,1.44 -0.26,0.39 -1.39,1.11 -2.49,0.05 -3.82,0.71 -1.01,0.3 -2.23,1.14 -1.56,-0.38 -0.74,-0.71 -2.94,-1.51 -1.1,0.36 0.39,1.49 -0.88,1.16 -0.15,0.5 0,0 -0.24,-0.17 -0.89,0.26 -1.21,-0.34 -0.24,-0.15 -0.4,-0.86 -3.02,-2.15 -0.53,0.21 -0.09,0.19 -0.64,0.16 -0.59,-0.11 -0.65,0.17 -1.11,-0.15 -0.34,0.39 -0.28,-0.3 -0.65,-0.06 -0.29,-0.23 -0.73,-0.18 -0.53,0.41 -0.69,0.2 -0.49,-0.28 -0.26,0.11 -0.38,-0.48 -0.41,-0.25 -0.26,0.5 -0.28,0.16 -0.31,0.1 -0.53,-0.16 -0.77,0.24 -0.25,-0.61 -0.38,-0.12 -0.41,-0.45 -0.54,0.67 0.05,0.62 -0.47,0.08 -0.37,-0.16 -0.23,0.54 -0.55,0.14 -0.19,-0.63 -1.17,-0.97 -1.52,0.35 -0.3,-0.18 -1.41,-0.21 -0.15,0.11 -0.13,0.64 -0.85,0.33 -0.39,0.76 -0.2,0.13 -0.65,-0.5 -0.11,-0.49 -0.27,-0.2 -1.51,-0.3 -0.33,-0.57 -0.53,0.19 -0.12,1.04 0.14,0.42 -0.72,0.6 -0.13,0.57 -0.41,0.11 -0.14,-0.33 -0.4,-0.06 -0.79,0.91 -0.37,-0.03 -0.33,0.67 -0.04,0.93 0,0 0,0.03 0,0 -0.34,-0.07 -0.55,-0.43 -0.31,-0.74 0.43,-1.1 0,-5.7 -0.62,-3.49 -0.49,-4.11 -1.71,-0.26 0,0 0.88,-0.36 0.5,-0.46 0.28,-1.91 -0.26,-0.4 -0.51,0.04 -0.77,-0.35 -2.17,-1.53 0.36,-1.58 2.56,-2.01 4.05,-0.05 0.95,-0.24 0.54,-0.52 0.8,-1.4 0.41,-1.77 2.29,-1.61 0.04,-1.03 0.64,-1.34 0.34,-2.59 3.78,-4.07 2.98,-2.25 0.11,-0.88 2.36,-2.71 -0.01,-1.25 0.24,-1.2699996 1.02,-2.1 0.66,-0.87 0.21,-0.09 1.14,1 0.12,0.28 0.34,2.52 -0.14,0.7999996 -0.72,0.93 -0.5,1.03 -0.07,0.73 0.12,0.3 z m 8.64,-12.7299996 -0.11,1.4 -0.45,1.03 -1.75,0.18 -0.89,0.54 -0.33,0.56 -0.22,0 -0.25,-1.14 0.18,-1.75 0.14,-0.21 1.29,-0.87 1.34,-0.32 0.8,0.15 0.25,0.43 z m -7.06,1.69 -0.31,0.66 -0.08,-0.08 0.46,-1.49 2.11,-1.36 0.29,0.77 0.01,0.72 -1.04,0.43 -1.44,0.35 z"
     title="Sabah"
     id="MY-12" />
  <path
     d="m 280.28571,86.227885 -0.75,0.29 -0.3,-0.21 -0.81,-1.34 0.14,-0.81 -0.32,-4.06 0.18,-0.59 0.44,-0.22 0.44,0.35 0.47,1.06 -0.08,3.49 0.59,2.04 z m 70.35,-45.54 1.71,0.26 0.49,4.11 0.62,3.49 0,5.7 -0.43,1.1 0.31,0.74 0.55,0.43 0.34,0.07 0,0 -0.01,0.13 0,0 -0.67,2.08 -0.45,0.41 -0.85,0.23 0.13,0.31 0.78,0.56 0.05,0.18 -0.04,0.56 -0.52,1.04 -0.14,0.71 -0.05,1.55 0.16,0.86 0.38,0.47 0.13,1.1 0.58,1.01 -0.4,0.58 -0.4,-0.63 -0.34,-0.02 -0.63,1.26 -0.42,2.81 0.05,0.18 0.71,0.52 0,0.2 -0.81,0.67 -0.13,0.25 0,0.84 -0.18,0.34 -1.03,0.14 -0.81,0.77 -1.23,0.09 -0.04,-0.41 -0.61,-0.65 -0.34,0.83 -1.59,1.06 -0.25,1.06 -0.96,0.77 0.04,0.18 0.51,0.13 0.18,0.27 -0.18,0.34 0,0.43 -0.6,0.52 0,0.38 0.23,0.14 0,0.49 -0.09,0.41 -0.31,0.38 0.31,0.47 0.99,-0.31 0.67,0.79 0.11,0.34 0.47,0.34 -0.07,0.31 -0.6,0.5 -0.78,-0.02 -0.58,0.18 -0.45,0.41 -0.2,0.59 -0.67,0 -0.51,0.59 -0.43,0.23 -0.67,-0.11 -0.31,0.63 0.33,0.43 -0.04,0.23 -0.78,0.49 -1.84,0.2 -0.34,1.31 0.02,0.82 0.16,0.29 0.35,0.19 -0.16,0.96 0.2,0.45 0.76,-0.34 0.51,0.25 0.02,0.22 -0.69,0.52 -0.05,0.23 0.4,0.81 -0.36,0.34 -0.67,0.11 -0.45,0.64 -0.54,-0.25 -0.56,0.16 0.07,0.27 -0.49,0.66 0.13,0.13 0.11,1.19 -0.13,0.99 -0.38,0.31 -0.52,0.92 -0.8,0.470005 -0.12,0.75 0.18,0.3 -0.49,0.81 0,0 -0.21,0.42 -0.39,0.12 -2.58,-1.51 -0.58,0.54 -1.58,0.66 -0.7,0.09 -0.24,0.45 0,0 -0.34,0.14 0,0 -0.2,-0.28 -0.97,-0.65 -3.05,0.32 -0.4,0.45 -1.92,0.79 -0.07,0.17 0.13,0.2 -0.28,0.84 -1.9,0.77 -0.38,0.45 -0.35,0.22 -0.3,0 -0.32,-0.1 -0.75,-1.34 -0.67,-0.3 -0.82,0.05 -0.57,0.22 -0.33,0.3 -0.4,-0.02 -0.3,-0.37 -0.6,-0.37 -0.17,-0.35 -0.72,-0.5 -0.77,-0.2 -1.6,0.15 -0.75,-0.22 -0.38,-0.67 -0.37,-0.05 -1.35,0.45 -0.75,-0.07 0.15,-0.45 0.3,-0.3 0.5,-0.17 0.5,-0.99 0.17,-0.05 -0.13,-0.4 -0.52,-0.3 -0.63,-0.120005 -0.92,0.07002 -0.82,-0.22001 -0.2,0.05 -0.35,0.47001 -0.57,0.3 -0.35,-0.02 -0.55,-0.4 -1.65,0.12 -2.9,-0.37001 -1.02,0.37001 -0.08,0.3 -0.55,0.27 -1.57,0.35 -1.27,0.79 -0.42,0 -0.5,0.55 0.42,0.65 -0.05,0.65 -0.85,0.84 -0.15,1.49 -0.25,0.6 0.03,0.65 -3.22,0.22 -1.35,1.39 -0.32,0.77 -1.7,-0.35 -0.58,0.17 -1,-0.52 -0.27,0.02 -1.13,0.82 -0.52,0.07 -0.1,0.52 -0.23,0.02 -0.7,-1.17 -0.77,-0.12 -0.7,0.3 -0.5,0.02 -0.5,-0.32 -1.75,-0.57 -0.32,-0.3 -1.95,0.57 -3.85,0.5 -0.27,0.6 -0.63,0.55 -0.72,0.12 -0.95,0.55 -0.77,0.25 -0.38,0.32 -0.45,0.02 -0.45,-0.45 -0.4,0.67 -0.55,0.12 -0.73,-0.07 -1.2,-0.42 -0.35,-0.27 -0.9,-1.37 -0.97,-0.25 -0.98,0 -0.32,-0.97 -0.42,-0.72 -0.48,-0.4 -0.15,-0.52 -0.45,-0.67 -0.73,-0.15 -0.6,0.07 -0.43,-0.35 -0.35,-0.87 -1.49,-0.74 -0.17,-1.39 -0.25,-0.3 -0.5,-0.2 -1.27,-0.05 -0.83,-1.29 -0.35,-0.15001 -1.82,-1.81 -0.3,-0.65 0.42,-2.14 -0.15,-0.35 -1.2,-0.3 -0.4,-0.62 -0.45,-0.32 -0.25,-0.59 0.05,-0.47 0.6,-0.07 0.3,-0.75 0.38,-0.22 0.5,-1.38 0,0 0.15,1.18 -0.07,1.14 0.34,0.66 0.67,0.8 3.27,2.23 0.49,0.54 0.93,0.14 4.69,-0.4 1.11,-1.52 0.23,-0.13 0.2,0.07 2.34,2.65 0.05,0.33 3.85,1.16001 0.53,0.29 0.12,0.32 -0.1,0.33 -1.02,0.89 0.2,0.1 0.81,-0.14 0.49,-0.46 0.21,-1.43 0.82,-0.09 2.67,1.23 1.5,1.57 1.6,0.70999 2.84,0.53 1.02,-0.21999 -1.58,-1.15001 -0.78,-0.05 -0.93,0.34001 -0.49,-0.06 -1.76,-1.06999 -0.78,-1.23 -0.22,-0.67 0.5,-1.62001 0.61,-0.28 1.88,-4.57 0.56,-2.04 0.59,-0.83 0.27,-0.15 1.21,0.31 0.42,-0.23 0.37,-0.47 0.03,-0.2 -0.29,-0.08 -2.82,0.38 -0.33,-0.08 0.18,-2 0.49,-2.35 0.25,-0.41 0.33,-0.12 1.23,0.72 0.91,0.83 0.45,-0.29 0.97,-0.21 -0.82,-1.93 0.58,-3.3 0.2,-0.38 3.81,-2.63 2.68,-0.44 2.19,-0.12 2.47,-0.43 13.35,-3.37 1.53,-0.48 0.99,-0.54 0.55,-0.52 0.7,-1.07 3.33,-4.02 2.42,-3.54 1.78,-2 2.63,-2.14 1.14,-1.11 3.3,-4.26 0.66,-1.33 0.52,-2.04 -0.05,-0.78 -0.5,-1.46 0.07,-0.22 0.53,-0.29 2.04,0.12 0,0 1.91,0.72 1.54,2.08 0.25,1.72 1.11,1.23 2.52,2.14 1.23,1.41 0.06,0.37 0.25,0.25 0.55,-0.06 1.29,-0.73 1.23,-1.35 0.98,-3.49 -0.06,-1.16 -0.31,-0.31 -0.98,-4.84 0.06,-0.43 1.11,-1.1 1.6,-0.18 0.49,-0.18 0.37,-0.31 0.45,-0.85 0,0 0.22,1.31 0,0 -0.24,0.71 0.18,2.15 0.43,1.23 0.74,3.31 2.03,0.73 2.15,0.49 0.31,-0.12 -0.12,-0.92 -1.05,-0.8 -0.25,-0.37 -0.12,-0.74 0,-1.41 0.18,-0.49 -0.06,-0.74 -0.98,-3.06 -1.21,-1.58 0,0 1.25,-0.91 1.14,0.56 0.72,0.55 0.5,-0.1 0.62,-0.45 1.48,-1.7 z"
     title="Sarawak"
     id="MY-13" />
  <path
     d="m 404.56571,47.287885 -0.48,0.67 -0.67,-0.01 -3.11,-1.24 2.23,-0.3 2.03,0.88 z m -59.64,-4.6 1.21,1.58 0.98,3.06 0.06,0.74 -0.18,0.49 0.12,2.15 0.25,0.37 1.05,0.8 0.12,0.92 -0.31,0.12 -2.15,-0.49 -2.03,-0.73 -0.74,-3.31 -0.43,-1.23 -0.18,-2.15 0.24,-0.71 0,0 0.29,0.24 0.2,-0.08 1.09,-0.8 0.41,-0.97 z m -2.74,0.01 -0.13,0.26 0.63,-0.1 0.03,0.14 0,0 -0.45,0.85 -0.37,0.31 -0.49,0.18 -1.6,0.18 -1.11,1.1 -0.06,0.43 0.98,4.84 0.31,0.31 0.06,1.16 -0.98,3.49 -1.23,1.35 -1.29,0.73 -0.55,0.06 -0.25,-0.25 -0.06,-0.36 -1.23,-1.41 -2.52,-2.14 -1.11,-1.23 -0.25,-1.72 -1.54,-2.08 -1.91,-0.72 0,0 1.1,-0.01 0.4,0.19 1.69,-0.24 3.8,-1.65 0.43,-0.28 2.1,-2.16 1.22,-0.92 3.06,-1.91 2.19,-0.88 0.5,-0.1 0.5,0.1 0.1,0.15 -1.97,2.33 z"
     title="Brunei Darussalam"
     id="BN" />

   </svg>