<?xml version="1.0" encoding="UTF-8" standalone="no"?>
<!-- Created for MapSVG plugin: http://mapsvg.com -->
<svg
   xmlns:mapsvg="http://mapsvg.com"
   xmlns:dc="http://purl.org/dc/elements/1.1/"
   xmlns:rdf="http://www.w3.org/1999/02/22-rdf-syntax-ns#"
   xmlns:svg="http://www.w3.org/2000/svg"
   xmlns="http://www.w3.org/2000/svg"
   mapsvg:geoViewBox="95.220250 7.356505 141.009728 -10.946766"
   width="792.54596"
   height="316.66394">


  <path
     d="m 584.81571,269.62789 -1.56,-0.07 -1.47,-0.72 -0.16,-0.33 1.05,-0.38 1.36,0.07 1.03,0.51 0.06,0.52 -0.31,0.4 z m -20.27,-2.88 1.84,0.65 1.74,0.15 0.87,-0.15 0.44,0.27 0.03,0.25 -1.58,1.67 -0.19,0.05 -3.38,-1.12 -0.48,-0.3 -0.68,-1.31 1.39,-0.16 z m 51.21,4.36 -0.67,0.05 -0.01,-0.23 1.59,-1.72 1.23,-0.67 0.59,-0.99 0.9,-0.99 0.33,-0.09 2.52,0.81 -0.63,0.62 -3.16,1.22 -1.08,0.77 -0.15,0.44 -1.15,0.74 -0.31,0.04 z m -17.94,-5.06 -1.26,-0.3 -1.91,-2.34 -0.14,-0.39 0.15,-0.73 0.1,-0.38 0.28,-0.31 1.63,-0.22 2.05,0.55 0.39,0.32 0.34,1.44 -1.63,2.36 z m -52.72,-6.75 0.81,0.01 0.43,1.34 -1.41,0.06 -1.68,0.51 -0.9,0.64 -0.97,1.19 -1.47,0.78 -2.43,-0.28 -2.73,-0.54 -1,0.02 -2.3,0.48 -2.23,1.79 -0.3,0.06 -0.18,-0.25 0.7,-2.67 2.76,-3.36 3.69,1.09 2.65,-0.46 1.24,-1.07 1.29,-0.6 2.3,-0.58 0.21,0.15 0.08,0.67 1.44,1.02 z m 11.67,-0.35 -0.26,0.13 -0.34,-0.07 -0.24,-0.41 0.37,-2 0.36,-0.23 1.69,0.55 0.06,0.26 -0.13,0.7 -1.51,1.07 z m 63.64,-2.43 -1.34,-0.42 -0.23,-0.53 0.31,-0.48 0.52,-0.19 2.33,-0.24 0.21,0.14 -0.74,0.9 -1.06,0.82 z m 11.54,-5.24 -0.73,0.31 -0.38,-0.07 -0.61,0.5 0.67,3.27 0,0.71 -0.85,2.56 -1,1.3 -2.96,2.18 -0.99,1.6 -0.06,1.26 -0.2,0.34 -0.46,0.24 -2.88,-0.28 -0.48,-0.24 -0.42,-2.3 1.82,-3.14 -0.23,-0.51 1.05,-2.85 1.2,-1 0.47,-0.18 0.91,-0.86 1.23,-1.49 1.36,-2.4 0.76,-0.41 1.3,-0.14 0.98,0.49 0.5,1.11 z m 3.24,-1.76 0.9,1.34 0.15,0.64 -0.27,0.52 -0.18,0.05 -0.84,-0.58 -0.41,-0.89 -0.99,-0.18 -1.17,0.26 -0.51,-0.1 -0.14,-0.22 0.1,-0.48 0.29,-0.2 3.07,-0.16 z m -56.61,1.75 -0.49,0.17 -1.51,-0.94 -0.23,-0.41 0.06,-0.21 0.32,-0.36 1.22,-0.74 1.39,0.76 0.08,0.2 -0.4,0.99 -0.44,0.54 z m 108.06,-14.83 -0.3,0.33 -0.63,1.45 -0.1,0.66 -0.63,1.22 -0.26,-0.23 -0.46,0.07 -0.07,0.4 0.17,0.46 0.3,0.17 0,0.4 -0.33,0 -0.33,0.2 -0.13,0.69 -0.66,1.02 -0.53,0.5 -0.3,0 -0.56,-0.43 0.07,-0.46 0.5,-0.46 0.33,-0.79 0.07,-0.83 0.4,-0.59 -0.3,0.03 -0.23,-0.3 -0.33,-0.89 0.1,-0.5 0.66,-0.46 0.73,-0.26 -0.03,-0.73 0.17,-0.23 0.69,-0.33 0.3,-0.53 0.99,-0.79 0.53,0.03 0.3,0.3 -0.13,0.88 z m -36.79,-7.18 -0.61,0.25 -0.82,-0.26 -0.44,-0.44 0.05,-1.24 -0.23,-2.15 -0.48,-1.37 0.11,-0.32 1.12,-0.32 1.81,3.45 0,1.13 -0.51,1.27 z m 33.85,-4.39 0.1,1.02 0.4,1.09 -0.63,0.13 0,0.3 1.32,0.66 -0.03,0.33 -0.17,0.26 -0.4,0.1 -0.76,-0.33 -0.03,0.5 0.4,0.26 0.07,0.23 -0.07,0.43 -0.26,0.13 -0.36,-0.07 -0.63,-0.5 -0.17,0.13 0,0.3 0.93,0.66 0.2,0.36 0.56,0.33 0.36,0.59 -0.36,2.31 -0.3,0.92 -0.66,1.12 -1.26,0.66 -0.5,-0.1 -0.23,0.2 0.36,0.99 0.53,0.33 -0.07,0.5 -1.09,0.99 -0.89,-0.26 -0.33,0.17 -0.23,0.56 0.1,0.33 0.5,-0.17 -0.03,0.5 -0.63,1.02 -0.69,0.46 -1.32,1.52 -0.03,0.66 -0.5,0.63 -2.05,0.89 -0.3,0.33 -0.46,-0.05 -0.36,-0.89 -0.33,-0.3 -0.69,0 -0.76,-1.32 0,-0.36 0.23,-0.2 0.36,-1.52 0.23,-3.11 0.3,-0.76 -0.03,-0.43 0.3,-0.99 -0.13,-1.75 -0.43,-1.52 0.66,-0.07 -0.43,-1.19 0.23,-0.56 0,-0.5 0.43,-0.36 0.17,0.17 0,0.33 0.26,0.03 0.5,-0.3 0.5,0 0.1,0.66 0.2,0.17 0.33,-0.1 0.46,-0.46 0.53,-1.32 0,-0.2 -0.5,-0.3 0.03,-0.3 0.17,-0.3 0.53,-0.4 0.07,-0.33 0.4,-0.33 0.26,-0.63 -0.07,-0.23 -0.3,-0.13 -0.5,0.3 -0.73,-0.59 -0.83,-0.1 -0.5,-0.53 0.07,-0.33 0.63,-0.69 0.99,0.63 0.36,0.03 1.29,-0.99 0.63,-1.65 0.76,-0.5 0.07,-0.63 -0.2,-0.86 0.17,-0.46 0.89,-1.22 0.63,-0.17 0.36,0.2 0.96,1.65 0.5,0.43 0.03,0.33 0.43,0.66 0.03,1.12 0.83,1.06 -0.07,0.5 -0.41,0.19 z m -30.73,3.18 -1.83,2.38 -0.17,-0.05 -0.01,-0.31 1.61,-5 0.34,-0.6 0.59,-0.56 2.22,-5.58 0.41,-0.17 0.57,0.08 0.33,0.7 -1.35,4.39 -0.53,0.65 -0.85,0.5 -1.17,1.6 -0.28,1.01 0.12,0.96 z m -76.67,-38.78 -2.08,0.41 -0.13,-0.13 0.26,-0.58 -0.01,-0.98 0.53,-0.39 1.21,0.12 0.92,0.91 -0.02,0.2 -0.68,0.44 z m 1.74,-1.65 0.82,0.29 0.36,-0.65 0.26,0.03 0.29,0.78 0,1.19 -1.44,0.22 -0.22,-0.09 -1.2,-1.68 -0.03,-0.31 0.22,-0.21 0.26,-0.02 0.68,0.45 z m -4.99,1.8 -0.64,1.16 -1,0.84 -2.11,0.61 -0.38,-0.04 1.81,-1.71 0.22,-0.45 -0.28,-0.12 -3.66,2.28 -0.75,-0.05 -0.42,-0.53 -0.03,-0.84 0.9,-0.99 1.08,-0.69 2.71,-0.52 0.77,-0.95 0.71,-0.29 0.55,0.13 0.57,0.33 0.15,0.24 -0.2,1.59 z m -12.15,-4.48 -1.94,-0.56 -0.69,-0.68 0.75,-0.6 0.78,0.1 0.94,0.88 0.46,0.66 -0.3,0.2 z m 2.43,-1.91 -1.74,-0.01 -0.6,-0.5 1.21,-1.1 0.83,-0.13 0.58,0.46 -0.04,1.13 -0.24,0.15 z m -13.48,-1.88 1.87,1.18 0.21,0.97 -1.03,-0.05 -0.22,0.36 0.2,0.74 0.75,0.68 0.53,-0.2 0.31,-0.33 2,0.66 -0.41,4.13 -0.34,0.63 -0.54,0.16 -0.66,-0.18 -0.72,0.18 -1.55,0.64 -2.58,1.38 -3,0.93 -3.2,-1.14 -2.18,-1.01 -2.42,-1.63 -3.43,-3.25 -0.47,-1.3 -0.14,-2.87 0.27,-0.56 1.23,-0.84 0.41,0.09 0.43,0.6 0.57,0.47 0.61,0.03 0.55,-0.75 0.68,-0.38 2.29,-0.6 5.55,-0.22 1.55,0.26 2.88,1.22 z m 48.47,-4.08 3.87,1.54 1.22,0.06 4.28,-0.38 0.66,0.17 3.68,2.61 0.71,1.81 0,1.37 0.27,0.91 0.45,0.52 1.21,-0.04 0.83,0.2 0.64,0.64 0.82,2.39 -0.07,0.62 -0.6,0.85 -0.25,2.54 0.15,0.81 -3.7,-1.45 -1.01,-1.06 -2.76,-1.61 -4.57,-1.54 -2.47,-1.26 -0.56,-0.74 -0.03,-0.85 -0.79,-0.63 -0.4,-0.13 -4.09,-0.31 -2.35,-0.33 -0.29,0.32 0.12,0.54 0.73,0.86 0.19,0.56 -0.25,0.57 -0.47,0.12 -3.66,-0.91 -1.05,-0.08 -1.63,-0.62 -0.75,-0.46 -2.88,0.12 -0.32,-0.26 0.16,-0.39 0.69,-0.62 0.04,-0.67 -0.69,-0.49 -0.88,-0.13 -1.92,1.21 -1.47,1.37 -0.25,0.47 -1.02,0.86 -2,0.44 -0.47,-0.02 -0.65,-0.27 -0.49,-0.42 -1.76,-2.61 -1.47,-0.99 -0.62,-2.36 -0.69,0.02 -0.78,0.79 -0.62,1.51 -0.33,2.23 -0.46,0.64 -0.43,0.11 -0.93,1.67 -0.33,1.39 -0.16,-0.25 -0.25,-1.04 0.52,-1.15 0.12,-1.25 -0.87,-1.35 -0.45,-1.37 2.21,-1.72 3.26,-3.96 3.97,0.1 2.83,-0.13 4.95,0.18 2.13,-0.48 0.88,-0.71 0.36,0.03 0.32,0.19 0.13,0.35 -0.03,1.35 0.53,0.61 0.55,0.32 1.38,-0.29 2.31,-1.47 0.33,-0.27 0.18,-0.7 0.48,-0.21 2.13,-0.15 1.78,0.54 2.45,1.02 0.45,0.6 z"
     title="Maluku"
     id="ID-MA" />
  <path
     d="m 533.85571,169.61789 -0.51,0.08 -0.53,-0.3 -0.47,-0.59 -0.35,-0.72 -0.25,-1.65 -0.89,-1.29 -0.62,-2.48 0.44,-1.09 0.25,-0.4 0.36,-0.23 0.59,0.08 0.79,0.69 0.02,0.43 -0.53,1.47 -0.03,0.61 2.04,4.47 -0.31,0.92 z m -10.97,-11.5 3.77,0.32 1.31,-0.17 0.54,-0.32 3.94,-0.12 6.23,0.53 -0.25,0.38 -1.41,0.6 -4.7,0.53 -8.89,0.55 -2.06,-0.97 -0.13,-0.22 -0.01,-0.83 0.63,-0.73 0.59,-0.09 0.18,0.38 0.26,0.16 z m -8.31,-1.81 0.97,0.34 1.85,-0.5 2.98,0.71 0.48,0.98 0.03,1.67 -0.38,-0.13 -2.39,-0.08 -1.8,0.27 -0.45,0.23 -0.14,0.58 -0.38,0.12 -2.51,-0.82 -1.18,0.27 -1.64,0.97 -2.04,0.57 -0.87,0.18 -2.05,0.06 -1.33,-2.3 -0.02,-1.07 0.7,-2.15 0.48,-0.55 2.34,-0.46 1.81,-0.01 5.54,1.12 z m 50.59,-4.71 3.99,2.32 0.53,0.45 0.29,0.51 0.03,0.43 -0.36,0.76 -0.84,0.46 -0.53,0.06 -6.1,-0.48 -1.14,0.66 -1.66,0.25 -1.94,-0.89 -0.65,-0.53 -0.27,-0.44 0.28,-1.04 -0.07,-0.5 0.22,-1.05 0.37,-0.73 0.3,-0.34 0.32,0.25 2.91,-1.8 1.61,0.31 2.71,1.34 z m -4.58,-2.91 -2.06,0.19 -0.67,-0.45 0,-0.18 0.86,-0.79 0.7,-0.24 1.8,0.72 -0.63,0.75 z m -5.13,-7.96 -0.7,0.24 -2.02,-0.46 -0.13,-0.19 0.02,-0.49 0.58,-1.84 0.24,-0.24 0.42,-0.1 0.45,0.1 0.65,1.22 0.49,1.76 z m 4.38,-8.13 1.94,2.51 -0.31,0.95 -0.7,0.67 -0.38,0.81 0.06,0.48 0.73,1.14 0.54,0.31 0.63,-0.38 1.23,-0.18 1.1,0.49 0.77,1.02 -0.06,0.51 -1.34,1.1 -1.06,0.29 -1.36,-0.58 -1.21,-1.47 -2.12,0.9 -0.44,-0.15 -0.34,-0.6 -0.61,-2.67 -1.72,-1.82 -0.23,-1.01 0.53,-1.97 0.87,-0.22 0.72,0.64 1.19,-0.26 0.88,-0.71 0.69,0.2 z m -6.72,3.57 -1.15,-0.07 -0.16,-0.44 -0.02,-3.52 0.65,-0.47 1.6,-0.17 0.4,0.46 0.38,1.67 -0.46,2 -1.24,0.54 z m 11.9,-40.140005 0.47,0.17 0.33,-0.09 0.42,0.12 0.96,0.87 0.27,0.5 0.43,3.340005 -0.82,2.98 -1.41,2.47 -1.27,1.05 -3.16,2.16 -0.39,0.59 0.05,1.02 0.42,0.71 1.68,1.19 0.69,0.29 0.86,-0.13 1.26,-0.95 0.2,-2.27 0.79,-1.33 1.11,-0.85 0.88,-0.11 0.78,0.14 0.57,-0.29 0.49,-1.03 -0.15,-0.47 -0.33,-0.27 -0.43,-0.05 -0.21,-0.82 1,-1.59 3.22,-2.23 1.17,-0.49 1.84,-0.51 1.36,-0.200005 1.02,0.03 0.39,0.07999 0.26,0.24 -0.47,7.82 -0.58,0.67 -3.78,2.21 -2.54,0.74 -1.49,1.48 -0.01,0.44 0.42,0.85 1.08,0.93 0.87,0.5 4.13,1.49 0.75,-0.03 0.75,0.16 0.32,2.48 -0.17,0.88 0.66,0.48 1.87,0.5 0.78,0.64 0.53,1.02 -0.89,-0.66 -0.67,-0.25 -4.69,-1.1 -1.57,-1.32 -1.61,-0.01 -1.38,0.2 -1.14,-0.3 -0.59,-0.34 -0.34,-0.49 -1.5,-0.26 -2.01,-0.18 -0.63,0.38 -0.26,0.33 -0.47,2.33 0.48,0.38 0.3,2.37 -0.69,1.13 0.04,1.35 2.61,6.84 0.99,1.85 0.76,1.01 1.31,2.23 3.26,3.24 -2.07,-0.11 -0.51,-0.17 -0.38,-0.36 0.13,-0.35 -1.73,-1.32 -1.49,-0.61 -0.54,-0.44 -1.36,-3 -1.44,-2.4 -2.42,-1.36 -0.95,-1.46 0.64,-4.83 -0.22,-2.24 -0.55,-2.46 -0.65,-0.36 -0.83,-0.88 -0.76,-2.32 -0.07,-0.95 0.39,-1.96 0.73,-0.76 0.54,-1.08 -0.08,-0.52 -1.85,-0.55 -0.2,-0.3 0.26,-0.98 -0.47,-1.64 -1.4,0.26 -0.13,-0.39 0.11,-2.59 2.16,-3.91 0.13,-1 -0.15,-0.38 0.75,-3.76 2.14,-3.19 3.77,-4.02 0.66,-0.56 1.85,-0.01 -0.24,1.12 -1.61,2.44 -0.42,0.5 -0.47,0.15 -0.69,0.55 -0.09,1.56 0.33,0.38 z m 10.85,-4.18 -1.92,0.09 -1.91,0.47 -0.54,-1.42 -0.32,-2.51 0.1,-1.04 1.03,-1.92 0.95,-1.18 1.5,-1.46 2.22,-1.05 0.25,0.05 1.88,2.57 0.15,0.79 -1.28,3.75 -0.89,1.6 -0.98,1.12 -0.24,0.14 z"
     title="Maluku Utara"
     id="ID-MU" />
  <path
     d="m 416.33571,271.95789 0.12,0.32 0.67,-0.3 -0.04,0.16 0.29,0.34 -0.27,0.41 -0.33,-0.23 -0.14,0.32 -0.19,0.07 -0.15,-0.16 -0.15,-0.95 0.19,-0.11 0,0.13 z m -44.16,-0.61 0.05,0.4 -0.18,0.3 -0.07,0.7 -0.57,0.51 -0.42,1.71 -1.6,2.38 -0.22,0.58 -0.77,0.98 -0.1,0.58 0.65,0.02 0.5,0.35 0.37,0.08 -0.47,0.63 -0.62,0.2 -0.1,-0.18 -0.23,0.03 -0.45,0.3 -0.62,-0.02 0.47,-1.48 -0.85,0.18 -0.4,0.38 0.1,0.53 -0.1,1.03 -0.4,-0.03 -0.17,-0.35 -1.17,-0.4 -0.37,0.13 -1.12,-0.18 -0.27,0.23 -0.4,-0.1 -0.15,-0.75 -0.3,-0.05 -0.87,0.18 -0.25,0.23 -0.4,-0.08 -0.27,-0.23 -0.22,0.05 -0.13,0.38 -0.3,0.08 -0.6,-0.43 -0.55,-0.65 -0.38,0.08 -0.45,-0.2 -0.62,0 -0.35,-0.4 -0.2,-0.63 0.4,-0.75 0.35,-0.08 0.07,0.38 0.77,0.43 0.3,0 0.57,-0.58 0.42,-0.05 0.45,0.25 0.27,-0.2 0,-0.18 0.32,0.02 0.25,-0.25 0.15,-1.61 -0.05,-1.58 -0.55,-0.54 -0.17,-0.78 0.45,-0.65 0.82,-0.48 0.1,-0.5 0.3,0.1 0.05,-0.15 0.97,-0.43 0.5,-0.78 0.9,-0.7 1.65,-0.6 1.12,0.1 0.8,0.25 0.45,0.3 2.4,0.55 1.4,1.13 0.11,0.31 z m 15.05,-3.68 1.15,-0.07 0.44,0.25 0.09,0.21 -1.26,0.92 -0.84,1.84 -0.7,0.95 -1,-0.63 0.61,-1.24 -0.19,-0.38 -0.24,-0.01 0.1,-0.57 -0.09,-0.66 0.58,-0.47 0.74,-0.32 0.61,0.18 z m 25.53,1.79 -0.69,0 -0.49,-0.4 -0.04,-0.9 0.32,-0.55 0.51,-0.37 0.79,0.08 0.39,0.4 0.15,0.53 -0.26,0.7 -0.41,0.46 -0.27,0.05 z m -19.25,-2.66 1.12,-0.13 0.4,0.2 0.45,-0.08 1.3,0.5 0.05,0.85 0.32,1.03 0.52,0.55 0.22,0.05 0.38,0.95 1.2,0.63 0.32,0.02 0.38,-0.35 0.67,-0.2 0.3,-0.65 1.07,-0.88 0.7,0 0.28,0.28 0.87,0.03 1.55,0.48 0.52,0.85 0.08,0.53 -0.13,1.56 -0.4,0.6 0.08,0.43 0.62,-0.2 0.22,-0.4 0.13,-0.8 -0.27,-0.4 0.05,-0.43 0.45,-0.85 0.33,-0.4 1.02,-0.73 0.42,0 0.17,0.23 1.02,-0.08 1.6,0.4 -0.17,0.68 0.08,0.45 0.95,1.43 0.05,0.95 -0.54,0.25 0.06,0.37 -0.16,0.21 0.39,0.62 -0.03,0.79 0.28,0.18 0.41,0 0.4,-0.28 0.54,-0.1 -0.36,-0.56 0.39,0.05 0.25,-0.15 0.08,-0.35 0.32,-0.2 0.33,0.5 -0.13,0.68 -0.33,0.45 0.15,1.13 -0.65,0.53 -0.35,-0.1 -0.33,0.13 -0.9,-0.3 -1.2,0.23 -0.52,-0.65 -0.6,-0.4 -0.47,0.2 -0.15,0.35 -0.25,0.05 -0.8,-0.25 -0.62,0.05 -0.17,-0.18 -0.38,0.2 -0.2,0.38 -0.53,0.25 0.1,0.13 0.52,0.23 2.75,-0.02 0.8,0.45 0.17,0.45 -0.4,0.33 -1.37,0.18 -0.47,-0.13 -0.77,-0.5 -0.85,-0.2 -1.22,0.23 -2.22,1.03 -1.07,0.25 -1.25,-0.48 -0.33,-0.73 0.11,-0.64 0.65,-0.8 0.08,-0.35 -0.15,-0.28 0.25,-0.43 -0.17,-0.48 -0.28,-0.4 -0.15,0 -0.1,0.18 0.07,0.55 0.15,0.1 -0.13,0.28 -0.3,0.2 -0.42,-0.13 -0.38,0.58 -0.65,0.3 -0.13,0.53 -0.47,0.11 -1.37,1.38 -0.92,0.38 -0.82,-0.6 -0.3,0 -0.27,0.23 -0.73,0.05 -0.32,0.6 -0.5,0.25 -0.35,0 -1.07,0.63 -0.62,-0.23 -0.18,-0.2 0,-0.3 -0.65,0.2 -0.15,0.28 -0.52,0.03 -0.3,-0.25 -0.3,0 -0.47,0.13 -2.4,1.36 -2.37,0.8 -1.3,0.08 -1.65,-0.55 -1,0.05 -0.97,1.01 -1.67,0.4 -1,-0.35 -0.32,-0.4 -0.65,-0.13 -0.37,0.25 -1.92,-0.73 -0.79,-0.48 -0.3,-0.5 0.23,-0.3 0.05,-0.38 -0.13,-0.23 0.17,-0.85 0.33,-0.05 0.22,-0.23 -0.08,-0.4 0.77,-0.15 -0.15,-0.55 -0.65,-0.98 0.27,-0.23 -0.42,-1 0.67,-1.41 0.47,-0.13 0.1,-0.2 -0.22,-0.83 0.47,0.33 1.58,-0.25 2.32,-1.58 0.67,-0.88 0.5,-0.15 0.3,0 0.97,0.6 0.23,-0.05 2.95,1.2 0.2,-0.48 0.45,-0.4 0.62,-0.23 0.45,0.15 1.17,-0.13 0.25,0.28 0.4,0.02 0.47,0.48 0.62,-0.05 0.32,0.95 -0.15,0.25 -0.62,0.18 -0.08,0.18 0.18,0.25 0.47,0.23 0.9,-0.08 -0.32,-1.3 0.4,-0.13 0.37,0.95 0.55,0.02 0.05,0.45 -0.8,0.08 0.32,0.38 -0.1,0.6 0.32,1.21 0.3,0.45 1.5,-0.3 1.3,0.55 0.35,0 1.47,-1.21 1.37,-0.3 0.67,0.08 0.37,0.35 1.57,-0.63 -0.2,-0.75 -0.38,-0.1 -0.13,-0.35 -0.57,-0.15 -0.15,0.25 -0.35,-0.58 -0.62,-0.38 -0.3,-0.5 -0.37,0.1 -0.5,-0.73 -1.67,0.2 -2.92,-1.86 -0.8,-1.03 -0.92,-0.83 -0.17,-0.35 0.32,-1 1.15,-0.83 0.7,0.05 1.7,-0.8 0.55,0.38 z"
     title="Nusa Tenggara Barat"
     id="ID-NB" />
  <path
     d="m 487.54571,308.45789 0.71,-0.08 0.12,0.16 -1.19,1.4 -0.37,0.13 0.13,0.18 1,0.14 0.21,0.82 -0.48,0.59 -0.94,-0.03 -0.59,0.29 -0.29,0.36 -0.77,0.29 -0.18,0.34 0.07,0.36 -0.37,0.86 -0.26,-0.09 -0.37,0.24 -0.48,-0.33 -0.39,-0.05 -0.5,0.28 -0.35,0.49 -1.76,0.09 -0.57,0.41 0.34,0.34 -0.29,0.53 -0.38,0.01 -0.12,-0.3 -0.46,0.04 -0.08,-0.16 -0.6,0.15 -0.12,0.37 -0.5,-0.3 -0.09,-0.49 0.14,-0.8 -0.46,-0.88 0.13,-0.37 0.85,-0.37 0.65,-0.04 0.63,-0.33 0.73,0.11 0.37,-0.22 0.78,-0.09 1.41,-1.37 0.51,0.04 0.48,-0.32 0.22,-0.65 0.44,0.03 -0.07,-0.4 0.83,-0.88 1.73,-0.78 0.2,-0.83 0.61,0.63 -0.33,0.24 0.07,0.24 z m -24.85,-1.04 0.71,0.12 0.16,0.18 -0.19,1.32 -0.3,0.35 -0.58,0.18 -0.57,0.6 -0.74,0.46 -0.61,0.1 -0.51,-0.25 -0.99,0.09 -1.1,-0.67 2.61,-1.46 0.22,-0.83 0.41,-0.25 0.67,-0.22 0.81,0.28 z m 26.17,-4.8 0.53,-0.11 0.09,0.45 -0.78,0.26 -0.12,0.38 -0.4,0.22 -0.17,-0.01 -0.01,-0.33 -0.44,-0.04 0.01,0.41 0.28,0.14 0.14,0.34 -0.09,0.29 0.13,0.34 -0.43,-0.06 0.11,0.28 0.2,0.07 -0.11,0.42 -0.4,-0.01 -0.14,-0.47 -0.19,-0.05 -0.38,0.07 -0.25,0.48 -0.15,0.02 -0.25,-0.44 0.07,-0.53 -0.15,-0.26 0.43,-0.58 0.52,-0.27 0.52,-0.87 0.15,-0.58 0.99,-0.39 0.22,0.33 0.07,0.5 z m -59.68,-13.46 0.37,0.25 0.47,0.87 0.42,0.37 0.49,0.15 1.01,-0.22 0.27,0.12 0.39,0.6 0.12,0.47 0.07,1.21 0.39,0.5 0.69,0.05 0.37,0.45 0.2,0 0.71,-0.4 1.72,-0.42 0.47,0.55 0.07,0.42 1.7,0.87 0.3,0.87 1.18,2.21 1.01,0.35 1.06,0.62 0.49,0.7 0.34,1.07 -0.22,0.8 -0.69,0.6 -0.47,0.07 -0.62,0.94 -0.86,0.57 -0.62,0.02 -0.42,0.35 -1.03,-0.2 -0.49,0.12 -0.91,0.47 -0.07,0.35 -0.25,0.27 -0.32,0.02 -0.79,-0.45 -0.57,-0.55 -1.45,0.05 -0.71,-0.12 -0.42,0.1 -1.11,-0.5 -0.74,-0.72 -0.37,-0.12 -0.74,-0.9 -0.44,-0.1 -0.15,-0.15 0.17,-0.35 -0.25,-0.62 -1.04,-1.19 -0.67,-0.2 -0.07,-0.32 -0.47,0 -0.05,-0.47 -1.28,-0.2 -0.27,0.07 -0.3,-0.45 -1.22,-0.81 -0.25,-0.3 -0.25,-0.75 -0.32,0 -0.31,0.23 -0.22,-0.37 -0.49,-0.2 -1.21,-0.17 -0.84,-0.3 -0.94,0.4 -0.27,0.5 -1.01,-0.52 -0.37,0.1 -0.22,-0.35 -1.55,-0.12 -0.57,0.1 -0.12,-0.15 -2,-0.67 -0.42,-0.3 -1.01,-1.37 -0.67,-0.5 -0.32,-0.55 0.64,-1.09 0.57,-0.55 0.67,-0.4 1.45,-0.35 1.13,-0.67 0.29,0.07 0.25,0.27 1.01,-0.5 0.49,-0.07 0.76,0.32 1.06,0 0.91,-0.3 1.26,0.32 0.79,-0.52 1.03,-0.02 0.74,0.52 1,0.22 0.34,-0.07 0.59,0.25 0.59,-0.55 1.18,-0.72 0.57,-0.84 0.2,-0.05 0.54,1.02 0.9,0.96 z m 85.11,-7.52 0.2,0.08 -0.3,0.63 -0.01,0.52 0.23,0.36 0.51,0.25 0.45,-0.01 0.67,-0.52 0.61,-0.17 0.32,-0.34 0.28,-0.63 0.41,0.45 0.26,0.05 0.61,0.51 0.02,0.85 -0.26,0.89 0.15,0.75 -0.69,0.08 -0.64,0.38 -0.03,0.14 -0.72,-0.56 -1.04,0.02 -0.28,0.57 -0.05,0.39 0.26,1.08 0.97,0.67 0.04,0.58 0.48,0.56 0.16,1.19 0,0 -0.91,0.65 -0.77,0.86 -0.17,1.64 -0.53,0.56 -1.11,0.46 -0.51,0.45 -1.46,1.86 -0.61,1.02 -0.67,0.25 -0.8,0.79 -1.89,1.1 -0.65,1.39 -1.42,1.07 -0.57,0.26 -0.48,0.01 -3.42,-0.29 -0.48,0.09 -0.46,0.19 -0.51,0.51 -0.16,0.44 -0.78,0.47 -0.28,0.37 -1.01,0.13 -1.19,0.54 -0.25,0.31 -1.29,0.4 -0.77,0 -0.9,0.22 -0.54,-0.26 -0.3,0.01 -0.71,0.35 -0.27,-0.35 -0.97,-0.38 -1.36,0.51 0.04,-0.53 0.23,-0.19 0.38,-0.82 -0.13,-0.69 0.58,-0.22 0.07,-0.66 1.49,-0.63 0.61,-0.04 0.55,-0.38 1,-0.38 0.49,-0.86 -0.2,-0.28 -1.01,-0.35 -0.3,0.12 -0.59,-0.1 -0.42,0.18 -0.23,0.35 -0.3,-0.09 -0.12,-0.19 -0.01,-1.81 0.36,-0.47 0.28,-0.1 0.33,0.09 0.4,-0.48 0.11,-1.07 -0.45,-0.66 0.49,-0.2 0.19,-0.35 0.04,-0.64 -0.23,-1.16 1.2,-1.24 0.77,-0.31 0.15,-0.6 0.3,-0.26 0.19,0.02 0.48,-0.39 0.62,-0.2 0.33,-0.6 0.54,-0.18 0.09,-0.34 0.39,-0.28 0.19,-0.43 0.33,-0.27 0.87,-0.06 0,0 0.88,1.19 0.46,-0.02 0.26,0.32 0.41,-0.11 0.2,-0.48 0.7,-0.42 0.21,0.04 0.83,0.81 0.25,0.61 -0.14,0.86 1.21,-0.28 0.23,-0.5 -0.22,-0.45 0.55,-0.68 -0.12,-0.25 0.11,-0.3 0.17,0.02 0.31,-0.4 0.49,-0.07 0.14,-0.43 0.3,-0.15 -0.12,-0.56 0.2,-0.43 0.04,-0.59 0.19,-0.24 -0.03,-0.31 0,0 0.45,0.12 0.85,-0.09 0.88,-0.31 1.51,-1.21 0.08,-0.56 0.79,-0.09 0.96,-0.7 1.07,-0.24 0.52,-0.45 0.87,-0.3 z m -88.95,-2.35 -0.42,-0.02 -0.01,-0.27 0.26,-0.27 0.25,0.14 -0.08,0.42 z m -2.21,-0.28 -0.05,0.15 -0.6,-0.24 0.44,-0.22 0.21,0.31 z m -1.1,-2.63 -0.24,0.15 -0.15,-0.13 -0.31,0.05 -0.15,0.28 0.27,0.28 -0.2,0.01 -0.41,-0.41 1.06,-0.68 0.15,0.07 -0.02,0.38 z m 0.7,-0.78 0.29,0.01 -0.01,0.61 0.19,0.69 0.1,-0.21 0.47,-0.04 0.02,-0.24 -0.33,-0.35 0.4,0.15 0.17,-0.46 0.37,0.12 0.35,-0.19 0.51,-0.01 0.23,0.18 -0.12,0.58 -0.7,0.13 -0.12,0.38 -0.22,0.17 -0.19,0 -0.04,-0.23 -0.2,0.01 -0.23,0.37 -0.08,0.37 0.48,0.18 0.15,0.3 -0.05,0.28 -0.6,0.67 -0.27,-0.01 -0.04,-0.34 -0.26,-0.26 -0.74,0.31 -0.21,-0.67 0.27,-0.86 0.24,-0.12 0.41,0.11 -0.15,-0.5 -0.23,0.21 -0.15,-0.08 0.18,-0.11 0.04,-0.36 -0.43,-0.8 0.32,-0.13 0.18,0.14 z m 47.22,-3.16 0.58,0.33 0.11,-0.2 0.11,0.18 -0.14,0.53 -0.43,0.36 -0.57,-0.16 -0.36,-0.44 0.05,-0.52 0.65,-0.08 z m -50.22,0.41 -0.01,0.47 0.18,0.11 1.15,0.21 0.38,-0.19 -0.04,0.65 0.15,0.26 -0.14,0.02 -0.22,-0.3 -0.09,0.19 0.17,0.26 0,0.69 0.22,0.1 -0.91,0.13 0,-0.48 -0.37,-0.08 -0.05,0.29 -0.34,0.33 -0.37,0.03 0.18,0.35 0.25,-0.03 0.2,-0.23 0.05,0.13 -0.16,0.25 -0.04,0.15 -0.13,0.21 -0.39,-0.06 -0.33,0.46 0.38,0.45 -0.14,0.37 0.41,0.23 -0.52,0.25 -0.61,-0.48 -0.52,0.22 0.09,-0.5 0.39,-0.33 0.09,-0.61 -0.04,-0.21 -0.36,-0.28 -0.2,0.09 0.24,-0.5 -0.25,-0.25 0.28,-0.48 0.2,0.05 0.38,-0.2 0,-0.39 0.19,-0.04 -0.02,-0.23 -0.32,-0.13 0.42,-0.3 -0.03,-0.2 -0.2,-0.1 -0.05,-0.47 0.5,0.12 0.06,-0.44 0.29,0.44 z m 63.8,-0.41 0.08,0.32 -0.33,0.28 -1.33,0.5 -0.46,-0.02 -0.36,-0.21 -0.72,0.61 -0.78,1.45 -0.46,0.27 -0.41,-0.04 -0.28,-0.47 0.25,-1.02 1.08,-0.58 0.06,-0.5 0.43,-0.44 0.39,-0.03 0.39,0.23 0.32,-0.23 1.37,0 0.39,-0.21 0.37,0.09 z m -24.91,-2.28 0.2,0.03 0.22,0.49 -0.1,0.34 -0.26,0.15 -0.77,-0.25 -0.17,0.13 -0.08,-0.1 0.19,-0.14 0.22,-0.6 0.31,-0.14 0.24,0.09 z m 25.8,-1.04 0.13,0.09 0.21,-0.26 0.22,-0.04 0.36,0.31 0.62,0.05 0.59,0.32 -0.29,0.47 -0.23,0.08 0.06,1.02 -0.28,0.6 -0.96,0.12 -1.05,-0.18 -1.87,0.44 -0.41,-0.16 -0.77,0.15 -0.05,-0.72 0.61,-1.06 1.2,-0.69 0.68,-0.59 0.66,0.09 0.43,-0.26 0.14,0.04 0,0.18 z m 18.17,1.97 -0.84,1.05 -0.15,1.07 -1.34,1.24 -1.03,0.15 -0.23,-0.16 0.2,-0.81 -0.55,-1.3 -0.8,-0.04 -0.68,0.5 -0.01,0.17 -0.56,-0.16 -0.01,-0.21 0.48,-0.54 0.33,-0.98 1.63,-0.93 0.51,0.3 0.04,0.67 0.17,0.15 0.39,-0.11 0.64,-0.67 0.19,-0.46 0.66,-0.38 0.72,-1.22 0.42,-0.35 0.64,-0.01 0.23,0.19 0.09,0.39 -0.44,0.82 0.08,0.98 -0.19,0.35 -0.59,0.3 z m -7.27,-2.47 1,0.12 0.44,0.63 -1.47,0.55 -0.63,-0.16 -0.72,0.28 -0.38,0.48 -0.07,0.47 -0.59,0.6 -0.07,0.32 -0.4,0.48 -0.36,-0.04 0.03,-0.25 -0.15,-0.08 -0.43,0.01 -0.54,0.58 -0.47,0.24 -0.15,0.38 0.38,0.48 0.11,0.5 -0.53,0.62 -0.58,-0.04 -0.28,-0.7 -0.21,-0.09 -0.72,0.32 -0.47,0.73 -0.39,0.11 -0.78,-0.31 -0.2,-0.4 -0.52,-0.28 -0.41,0.35 -0.88,-0.13 -0.19,0.24 -0.35,-0.3 0.03,-0.42 0.38,-0.01 1.28,-1.07 0.43,-0.85 0.82,-0.27 0.21,-0.23 0.78,-0.13 0.59,-0.42 -0.74,-0.75 -0.42,-0.07 -0.98,0.17 0.6,-0.73 0.45,-0.2 0.28,0.24 0.64,0.08 0.48,-0.48 0.58,-0.11 0.63,0.09 0.12,0.09 -0.24,0.25 -0.12,0.47 -0.75,0.86 -0.04,0.27 0.94,0.32 0.71,-0.56 -0.01,-0.32 -0.31,-0.15 -0.01,-0.43 0.5,0 -0.07,0.35 0.08,0.16 0.58,-0.5 -0.17,-0.7 -0.38,-0.13 0,-0.32 0.7,-0.09 0.23,0.12 -0.04,0.4 0.71,0.15 0.13,-0.15 -0.12,-0.46 1.52,-0.93 0.98,0.75 z m 11.71,-1.52 1.44,0.1 -0.18,0.33 -0.02,0.69 0.25,0.16 0.83,-0.5 1.68,-0.32 1.33,0.26 1.46,0.03 0.77,-0.36 0.84,0.18 0.64,-0.15 0.93,0.05 0.7,1.39 -0.08,1.14 0.12,0.51 -0.38,0.33 -0.92,0.25 -3,0.12 -1.57,0.61 -1.08,0.07 -1.36,-0.16 -1.07,0.69 -0.88,0.2 -0.26,-0.31 -0.56,-0.13 -1.21,0.71 -0.16,-0.03 -0.07,-0.31 -0.88,0.1 -0.39,-0.38 0.03,-0.35 0.1,-0.31 0.95,-1.14 0.05,-0.38 0.41,-0.13 0.79,-0.64 0.64,-0.08 0.54,-0.33 -0.16,-0.13 -0.66,0.12 -1.59,0.79 0.08,-0.48 -0.17,-0.38 0.96,-1.29 0.35,-0.37 0.76,-0.17 z m -27.53,-0.26 0.78,0.51 0.03,0.44 -0.2,0.56 0.28,0.33 0.05,0.6 0.68,0.69 0.02,0.41 -0.71,0.68 -0.29,0.05 -0.67,-0.38 -0.21,0.07 -0.58,0.85 0.23,0.57 -0.12,0.6 -0.46,0.07 -0.52,-0.36 -0.62,-0.17 -0.16,0.15 0.11,0.87 0.88,0.93 0.05,0.6 -0.21,0.37 -0.88,0.34 -0.84,-0.01 -0.11,0.41 -0.21,-0.16 -0.83,0 -0.84,0.52 -0.27,-0.08 -0.24,0.2 -0.48,0.07 -0.58,0.74 -1.97,0.65 -0.76,0.08 -0.53,-0.2 -1.08,0.26 -0.71,-0.23 -0.69,0.12 -0.35,-0.32 -1.05,0.04 -0.44,0.13 -0.3,0.43 -0.22,0.04 -0.5,0.5 -1.89,0.67 -0.96,0.02 -0.22,0.3 -1.19,0.48 -0.87,-0.07 -0.52,-0.41 -0.52,-0.07 -0.19,0.14 0.06,0.45 -0.15,0.35 -0.25,0.07 -0.31,-0.14 0.32,-1.03 -0.6,-0.24 -0.49,-0.4 -0.74,0.15 -2.52,-0.32 -0.24,0.04 -0.17,0.6 0.06,0.85 -0.43,0.42 -0.57,0.17 -0.71,-0.39 -1.36,0.14 -0.29,-0.15 -1.58,0.6 -0.92,0.61 -0.43,-0.02 -1.47,-0.49 -0.92,-0.75 -0.28,-0.8 -0.24,-0.09 -0.81,0.18 -0.34,0.75 -0.46,0.12 -0.95,-0.39 -0.81,-0.06 -0.89,-0.9 -2.6,0.02 -0.78,0.14 -0.24,-0.13 -1.23,0.63 -0.3,-0.18 -0.29,0.16 -1.15,-0.3 -0.81,-0.84 -0.33,-0.05 -2.23,0.61 -0.87,0.12 -0.42,-0.09 -0.36,0.38 0,0.32 -0.21,0.07 -0.42,-0.13 0.13,-0.27 -0.16,-0.09 0.01,-0.46 -0.8,-0.07 -0.15,-0.31 -0.52,-0.44 -0.06,-0.37 0.01,-0.25 0.09,-0.35 -0.1,-0.23 0.23,-0.46 0.01,-1.12 -0.22,-0.1 0.09,-0.33 0.48,-0.52 -0.05,-0.15 0.5,-0.17 0.32,-0.37 0.08,-0.55 -0.34,-0.44 -0.07,-0.39 0.42,-0.04 0.04,0.58 0.3,0.06 0.11,0.17 0.48,-0.32 0.24,0.01 0.4,-0.42 0.5,0.47 0.24,-0.36 -0.25,-0.14 0.02,-0.24 0.35,-0.56 0.51,0.04 0.24,-0.17 0.21,0.01 0.14,0.43 0.22,0.18 -0.18,0.36 0.38,0.04 0.21,-0.39 0.01,-1 0.63,0.29 0.25,-0.43 0.15,0 0.33,-0.74 0.24,0.04 0.49,-0.15 0.24,-0.25 0.49,-0.04 0.71,-0.03 0.78,0.2 0.71,-0.25 0.07,-0.47 0.19,-0.17 0.46,0.38 -0.01,0.33 0.4,0.24 0.85,-0.33 0.51,0.29 0.72,0.01 0.17,-0.22 -0.24,-0.27 0.11,-0.2 0.75,0.35 0.73,0.89 0.49,-0.04 0.43,0.38 1.17,-0.15 0.9,0.29 1.15,-0.01 0.53,-0.18 0.5,0.07 -0.03,0.35 0.13,0.13 0.5,-0.03 0,0.36 0.21,0.39 0.71,-0.1 0.65,0.28 0.63,0.04 0.38,0.26 0.43,-0.08 0.75,0.46 0.78,0.1 0.49,0.21 0.75,1.21 1.22,0.56 0.85,-0.45 0.25,0.31 0.33,0.13 0.21,0.53 0.51,-0.6 0.61,-0.2 -0.25,-0.22 -0.01,-0.35 0.17,-0.06 0.65,0.42 -0.22,-0.43 0.1,-0.82 0.21,-0.22 0.44,0.11 -0.03,0.36 0.4,-0.11 0.24,0.32 0.86,-0.31 0.89,0.09 0.28,0.19 0.51,-0.2 0.29,-0.31 0.28,0.22 0.89,0.04 0.28,-0.17 0.54,-0.74 -0.06,0.5 0.51,-0.44 0.49,-0.12 0.23,0.06 -0.27,0.81 0.09,0.67 0.92,-0.11 0.29,0.36 0.31,-0.25 0.96,0.45 1.21,1.21 1.15,0.28 0.6,-0.38 0.53,-0.1 1.5,-0.16 0.42,0.1 0.76,-1.05 -0.04,-0.39 -0.61,-0.54 0.22,-0.34 1.12,-0.32 0.3,-0.47 0.32,-0.09 0.14,-0.55 0.27,0.07 0.29,-0.27 0.53,0.15 1.2,-0.54 0.55,0.1 0.76,-1.11 1.11,-0.12 0.36,-0.23 0.36,-1.12 0.43,-0.26 -0.61,-0.34 -0.63,-0.01 -0.94,0.31 -0.41,0.68 -0.98,-0.19 -0.03,-0.13 0.47,-0.4 0.42,-0.74 0,-0.77 0.82,-0.21 0.62,-0.53 1.08,0.67 z"
     title="Nusa Tenggara Timur"
     id="ID-NT" />
   </svg>